# xmcd CD database file
#
# Track frame offsets:
#	150
#	12355
#	26557
#	45280
#	63727
#	87907
#
# Disc length: 1428 seconds
#
# Revision: 0
# Processed by: cddbd v1.5PL3 Copyright (c) Steve Scherf et al.
# Submitted via: CDex 1.50
#
DISCID=42059206
DTITLE=Michael Monroe - Take Them And Break Them
DYEAR=2002
DGENRE=Hard Rock
TTITLE0=Take Them And Break Them
TTITLE1=Backbiter
TTITLE2=Make It Go Away (LIVE)
TTITLE3=Where's The Fire John? (LIVE)
TTITLE4=Just Because You're Paranoid (LIVE)
TTITLE5=Relationshipwrecked (LIVE)
EXTD=YEAR: 2002
EXTT0=
EXTT1=
EXTT2=
EXTT3=
EXTT4=
EXTT5=
PLAYORDER=
